<svg viewBox="0 0 64 64" fill="none" xmlns="http://www.w3.org/2000/svg">
    <g id="retry-shadow">
        <path fill-rule="evenodd" clip-rule="evenodd" d="M23.7892 24.1828L35.6058 19.6311C40.6485 19.7561 43.9351 24.5579 45.7916 29.8349C42.8563 27.0839 41.1754 26.5087 37.9139 26.5587L26.4988 30.9104L28.4055 36.1624L15.0585 31.3855L21.9076 18.9558L23.7892 24.1828Z"/> 
        <path fill-rule="evenodd" clip-rule="evenodd" d="M39.4192 43.065L27.6026 47.6167C22.5599 47.4917 19.2733 42.6899 17.4168 37.4129C20.3521 40.1639 22.033 40.7391 25.2945 40.6891L36.7096 36.3374L34.8029 31.0854L48.1499 35.8623L41.3008 48.292L39.4192 43.065Z"/> 
    </g>
    <g id="retry-outline"> 
        <path fill-rule="evenodd" clip-rule="evenodd" d="M25.2193 19.8312L23.0366 13.804L15.0334 28.3095L30.5881 33.8866L28.4055 27.8593L39.0429 23.8328C42.0284 23.8078 43.5838 24.358 46.3184 26.9089L48.4258 28.8847L47.4725 26.1587C45.5156 20.5815 41.9531 15.6046 36.6344 15.4796H36.4839L25.2193 19.8312ZM24.1405 20.9817L24.3913 21.6569L36.7347 16.8801C38.9927 16.9802 40.8492 18.1056 42.3796 19.8062C43.4584 21.0067 44.3365 22.4572 45.0891 24.0579C43.1322 22.6823 41.4764 22.3822 38.8923 22.4072H38.7669L26.5991 27.034L28.2298 31.5357L17.0656 27.5342L22.7857 17.2052L24.1405 20.9817Z"/> 
        <path fill-rule="evenodd" clip-rule="evenodd" d="M39.4693 40.8141L41.652 46.8414L49.6552 32.3359L34.1005 26.7588L36.2831 32.7861L25.6457 36.8376C22.6602 36.8626 21.1048 36.3124 18.3702 33.7615L16.2628 31.7857L17.2161 34.5117C19.173 40.0889 22.7355 45.0657 28.0542 45.1908H28.2047L39.4693 40.8141ZM40.5481 39.6637L40.2973 38.9884L27.9539 43.7653C25.6959 43.6652 23.8394 42.5398 22.309 40.8391C21.2302 39.6387 20.3521 38.1881 19.5995 36.5875C21.5564 37.963 23.2122 38.2632 25.7963 38.2382H25.9217L38.0895 33.6114L36.4588 29.1097L47.623 33.1112L41.928 43.4401L40.5481 39.6637Z"/> 
    </g>
</svg>